<?xml version="1.0" encoding="UTF-8" standalone="yes"?>
<svg xmlns="http://www.w3.org/2000/svg" height="650" width="452" onload='Init(evt)'><script type="text/ecmascript">
<![CDATA[
IDS = new Array('0','1','2','3','4','5','6','7','8','9','10','11','12','13','14','15','16','17','18','19','20','21','22','23','24','25','26','27','28','29','30','31','32','33','34','35','36','37','38','39','40','41','42','43','44','45','46','47','48','49','50','51','52','53','54','55','56','57','58','59','60','61','62','63','64','65','66','67','68','69','70','71','72','73','74','75','76','77','78','79','80','81','82','83','84','85','86','87','88','89','90','91','92','93','94','95','96','97','98','99','100','101');
CONS = new Array('#ffffff','#ffffff','#ffffff','#ffffff','#ffffff','#ffffff','#ffffff','#ffffff','#ffffff','#ffffff','#ffffff','#ffffff','#ffffff','#ffffff','#ffffff','#ffffff','#ffffff','#ffffff','#ffffff','#ffffff','#ffffff','#ffffff','#ffffff','#ffffff','#ffffff','#ffffff','#ffffff','#ffffff','#ffffff','#ffffff','#ffffff','#ffffff','#ffffff','#ffffff','#ffffff','#ffffff','#ffffff','#ffffff','#ffffff','#ffffff','#ffffff','#ffffff','#ffffff','#ffffff','#ffffff','#ffffff','#ffffff','#ffffff','#ffffff','#ffffff','#ffffff','#ffffff','#ffffff','#ffffff','#ffffff','#ffffff','#ffffff','#ffffff','#ffffff','#ffffff','#ffffff','#ffffff','#ffffff','#ffffff','#ffffff','#ffffff','#ffffff','#ffffff','#ffffff','#ffffff','#ffffff','#ffffff','#ffffff','#ffffff','#ffffff','#ffffff','#ffffff','#ffffff','#ffffff','#ffffff','#ffffff','#ffffff','#ffffff','#ffffff','#ffffff','#ffffff','#ffffff','#ffffff','#ffffff','#ffffff','#ffffff','#ffffff','#ffffff','#ffffff','#ffffff','#ffffff','#ffffff','#ffffff','#ffffff','#ffffff','#ffffff','#ffffff');
PROBS = new Array('#dc1400','#dc7800','#dc1400','#dc1400','#dc1400','#dc1400','#dc1400','#dc1400','#dc1400','#dc2800','#dc2800','#dc1400','#dc1400','#dc1400','#dc7800','#dc2800','#dc1400','#dc1400','#dc5000','#dcdc00','#78dc00','#dca000','#00dca0','#00dc78','#00dc78','#dc3c00','#dc3c00','#dc2800','#dc2800','#dc2800','#dc2800','#dc1400','#dc1400','#dc1400','#dc1400','#dc1400','#dc1400','#dc2800','#dc2800','#dc2800','#dc2800','#dc1400','#dc1400','#dc1400','#64dc00','#50dc00','#8cdc00','#28dc00','#8cdc00','#8cdc00','#dc5000','#dc6400','#dc3c00','#dc3c00','#dc8c00','#dc5000','#8cdc00','#8cdc00','#28dc00','#dcdc00','#dcc800','#dcc800','#dc1400','#dc1400','#dc1400','#dc5000','#dca000','#dc6400','#dc2800','#dc2800','#dcc800','#dcc800','#dcdc00','#dc6400','#00dc00','#00dc3c','#3cdc00','#dcdc00','#dc5000','#dc1400','#dc1400','#dc2800','#dc7800','#dc1400','#dc2800','#dc1400','#dc1400','#dc2800','#dc1400','#dc1400','#dc1400','#dc1400','#dc1400','#dc1400','#dc1400','#dc7800','#dc1400','#dc1400','#dc1400','#dc1400','#dc1400','#dc1400');
POSEN = new Array('#dc1400','#dcdc00','#dc1400','#dc1400','#dc1400','#dc1400','#dc1400','#dc1400','#dc1400','#dc3c00','#dc3c00','#dc2800','#dc1400','#dc2800','#dcdc00','#dc3c00','#dc2800','#dc2800','#dca000','#28dc00','#00dcb4','#3cdc00','#008cdc','#00dc8c','#00dcb4','#dcb400','#dc8c00','#dc5000','#dc5000','#dc5000','#dc6400','#dc2800','#dc1400','#dc1400','#dc1400','#dc1400','#dc2800','#dc6400','#dc5000','#dc3c00','#dc5000','#dc2800','#dc1400','#dc1400','#14dc00','#00dc50','#00dc28','#00dc28','#00dc50','#00dc78','#dc8c00','#c8dc00','#dc7800','#dc8c00','#a0dc00','#dca000','#00dc78','#00dc78','#50dc00','#50dc00','#00dc00','#28dc00','#dc2800','#dc1400','#dc2800','#dcdc00','#3cdc00','#c8dc00','#dc6400','#dc6400','#14dc00','#00dc28','#00dc00','#c8dc00','#00c8dc','#0050dc','#00dc8c','#28dc00','#dcdc00','#dc2800','#dc2800','#dc3c00','#dcdc00','#dc2800','#dc5000','#dc3c00','#dc2800','#dc3c00','#dc1400','#dc1400','#dc1400','#dc1400','#dc1400','#dc1400','#dc1400','#dcdc00','#dc1400','#dc1400','#dc1400','#dc1400','#dc1400','#dc1400');
CMARK = new Array(0,0,0,0,0,0,0,0,0,0,0,0,0,0,0,0,0,0,0,0,0,0,0,0,0,0,0,0,0,0,0,0,0,0,0,0,0,0,0,0,0,0,0,0,0,0,0,0,0,0,0,0,0,0,0,0,0,0,0,0,0,0,0,0,0,0,0,0,0,0,0,0,0,0,0,0,0,0,0,0,0,0,0,0,0,0,0,0,0,0,0,0,0,0,0,0,0,0,0,0,0,0);
GMARK = new Array(0,0,0,0,0,0,0,0,0,0,0,0,0,0,0,0,0,0,0,0,0,0,0,0,0,0,0,0,0,0,0,0,0,0,0,0,0,0,0,0,0,0,0,0,0,0,0,0,0,0,0,0,0,0,0,0,0,0,0,0,0,0,0,0,0,0,0,0,0,0,0,0,0,0,0,0,0,0,0,0,0,0,0,0,0,0,0,0,0,0,0,0,0,0,0,0,0,0,0,0,0,0);
var SVGDocument = null;
var SVGRoot = null;
function Init(evt) { SVGDocument = evt.target.ownerDocument;
SVGRoot = SVGDocument.documentElement;click("SEQPLAIN");click2("PROBS"); }
 var dummy = 1;

function click(choice) {
   var radiobutton1 = (SVGDocument.getElementById("rbSEQANNO")) ? SVGDocument.getElementById("rbSEQANNO") : SVGDocument.getElementById("dummycircle");
   var radiobutton2 = (SVGDocument.getElementById("rbSEQPLAIN")) ? SVGDocument.getElementById("rbSEQPLAIN") : SVGDocument.getElementById("dummycircle");
   var radiobutton3 = (SVGDocument.getElementById("rbSEQNONE")) ? SVGDocument.getElementById("rbSEQNONE") : SVGDocument.getElementById("dummycircle");


   if (choice == "SEQANNO") {
      radiobutton1.setAttribute("style", "visibility: visible");
      radiobutton2.setAttribute("style", "visibility: hidden");
      radiobutton3.setAttribute("style", "visibility: hidden");

      for (i = 0; i < IDS.length; i++){
         if (CMARK[i] == 1)
         {
            var tmp = SVGDocument.getElementById("c"+IDS[i]);
            tmp.setAttribute("stroke-width", "1");
         }
         if (GMARK[i] == 1)
         {
            var tmp2 = SVGDocument.getElementById("t"+IDS[i]);
            tmp2.setAttribute("fill", "gray");
         }
      }
      var seq = SVGDocument.getElementById("seq");
      seq.setAttribute("style", "visibility: visible");
      dummy = 1;
   }

   if (choice == "SEQPLAIN") {
      radiobutton1.setAttribute("style", "visibility: hidden");
      radiobutton2.setAttribute("style", "visibility: visible");
      radiobutton3.setAttribute("style", "visibility: hidden");

      for (i = 0; i < IDS.length; i++){
         var tmp = SVGDocument.getElementById("c"+IDS[i]);
         tmp.setAttribute("stroke-width", "0");
         var tmp2 = SVGDocument.getElementById("t"+IDS[i]);
         tmp2.setAttribute("fill", "black");
      }
      var seq = SVGDocument.getElementById("seq");
      seq.setAttribute("style", "visibility: visible");
      dummy = 1;
   }

   if (choice == "SEQNONE") {
      radiobutton1.setAttribute("style", "visibility: hidden");
      radiobutton2.setAttribute("style", "visibility: hidden");
      radiobutton3.setAttribute("style", "visibility: visible");

      for (i = 0; i < IDS.length; i++){
         var tmp = SVGDocument.getElementById("c"+IDS[i]);
         tmp.setAttribute("stroke-width", "0");
      }
      var seq = SVGDocument.getElementById("seq");
      seq.setAttribute("style", "visibility: hidden");
      dummy = 0;
   }
}function click2(choice) {
   var radiobutton1 = (SVGDocument.getElementById("rbCONS")) ? SVGDocument.getElementById("rbCONS") : SVGDocument.getElementById("dummycircle");
   var radiobutton2 = (SVGDocument.getElementById("rbPROBS")) ? SVGDocument.getElementById("rbPROBS") : SVGDocument.getElementById("dummycircle");
   var radiobutton3 = (SVGDocument.getElementById("rbPOSEN")) ? SVGDocument.getElementById("rbPOSEN") : SVGDocument.getElementById("dummycircle");
   var radiobutton4 = (SVGDocument.getElementById("rbNONE")) ? SVGDocument.getElementById("rbNONE") : SVGDocument.getElementById("dummycircle");

   var legend1 = (SVGDocument.getElementById("legend_cons")) ? SVGDocument.getElementById("legend_cons") : SVGDocument.getElementById("dummycircle");
   var legend2 = (SVGDocument.getElementById("legend_probs")) ? SVGDocument.getElementById("legend_probs") : SVGDocument.getElementById("dummycircle");
   var legend3 = (SVGDocument.getElementById("legend_posen")) ? SVGDocument.getElementById("legend_posen") : SVGDocument.getElementById("dummycircle");

   if (choice == "CONS") {
      radiobutton1.setAttribute("style", "visibility: visible");
      radiobutton2.setAttribute("style", "visibility: hidden");
      radiobutton3.setAttribute("style", "visibility: hidden");
      radiobutton4.setAttribute("style", "visibility: hidden");
      legend1.setAttribute("style", "visibility: visible");
      legend2.setAttribute("style", "visibility: hidden");
      legend3.setAttribute("style", "visibility: hidden");

      for (i = 0; i < IDS.length; i++){
          var tmp = SVGDocument.getElementById("c"+IDS[i]);
          tmp.setAttribute("style", "fill:"+CONS[i]);
          
      }
      var seq = SVGDocument.getElementById("seq");
      if (dummy == 0)
      {
         seq.setAttribute("style", "visibility: visible");
         seq.setAttribute("style", "visibility: hidden");
      }
      else
      {
         seq.setAttribute("style", "visibility: hidden");
         seq.setAttribute("style", "visibility: visible");
      } 
   }

   if (choice == "PROBS") {
      radiobutton1.setAttribute("style", "visibility: hidden");
      radiobutton2.setAttribute("style", "visibility: visible");
      radiobutton3.setAttribute("style", "visibility: hidden");
      radiobutton4.setAttribute("style", "visibility: hidden");
      legend1.setAttribute("style", "visibility: hidden");
      legend2.setAttribute("style", "visibility: visible");
      legend3.setAttribute("style", "visibility: hidden");

      for (i = 0; i < IDS.length; i++){
          var tmp = SVGDocument.getElementById("c"+IDS[i]);
          tmp.setAttribute("style", "fill:"+PROBS[i]);
          
      }
      var seq = SVGDocument.getElementById("seq");
      if (dummy == 0)
      {
         seq.setAttribute("style", "visibility: visible");
         seq.setAttribute("style", "visibility: hidden");
      }
      else
      {
         seq.setAttribute("style", "visibility: hidden");
         seq.setAttribute("style", "visibility: visible");
      } 
   }

   if (choice == "POSEN") {
      radiobutton1.setAttribute("style", "visibility: hidden");
      radiobutton2.setAttribute("style", "visibility: hidden");
      radiobutton3.setAttribute("style", "visibility: visible");
      radiobutton4.setAttribute("style", "visibility: hidden");
      legend1.setAttribute("style", "visibility: hidden");
      legend2.setAttribute("style", "visibility: hidden");
      legend3.setAttribute("style", "visibility: visible");

      for (i = 0; i < IDS.length; i++){
          var tmp = SVGDocument.getElementById("c"+IDS[i]);
          tmp.setAttribute("style", "fill:"+POSEN[i]);
          
      }
      var seq = SVGDocument.getElementById("seq");
      if (dummy == 0)
      {
         seq.setAttribute("style", "visibility: visible");
         seq.setAttribute("style", "visibility: hidden");
      }
      else
      {
         seq.setAttribute("style", "visibility: hidden");
         seq.setAttribute("style", "visibility: visible");
      }   
   }

   if (choice == "NONE") {
      radiobutton1.setAttribute("style", "visibility: hidden");
      radiobutton2.setAttribute("style", "visibility: hidden");
      radiobutton3.setAttribute("style", "visibility: hidden");
      radiobutton4.setAttribute("style", "visibility: visible");
      legend1.setAttribute("style", "visibility: hidden");
      legend2.setAttribute("style", "visibility: hidden");
      legend3.setAttribute("style", "visibility: hidden");

      for (i = 0; i < IDS.length; i++){
          var tmp = SVGDocument.getElementById("c"+IDS[i]);
          tmp.setAttribute("style", "fill:#ffffff");
         
      }
      var seq = SVGDocument.getElementById("seq");
      if (dummy == 0)
      {
         seq.setAttribute("style", "visibility: visible");
         seq.setAttribute("style", "visibility: hidden");
      }
      else
      {
         seq.setAttribute("style", "visibility: hidden");
         seq.setAttribute("style", "visibility: visible");
      } 
   }
}]]>
</script>
<circle id="dummycircle" cx="1" cy="1" r="1" stroke-width="0" fill="white" />
<g transform="translate(10 462)" font-family="Arial,Helvetica">
     <text font-size="12px" x="5" y="0" fill="dimgray" font-weight="bold">Sequence display options</text>

     <circle cx="10" cy="15" r="5" stroke-width="1" stroke="rgb(100,100,100)" fill="white" onclick="click('SEQPLAIN')" />
     <circle cx="10" cy="15" r="3" id="rbSEQPLAIN"  style="fill:black;visibility:visible;" onclick="click('SEQPLAIN')" />
     <text x="20" y="20" font-size="12px" fill="dimgray" onclick="click('SEQPLAIN')"> Plain Sequence </text> 

     <circle cx="10" cy="35" r="5" stroke-width="1" stroke="rgb(100,100,100)" fill="white" onclick="click('SEQNONE')" />
     <circle cx="10" cy="35" r="3" id="rbSEQNONE"  style="fill:black;visibility:hidden;" onclick="click('SEQNONE')" />
     <text x="20" y="40" font-size="12px" fill="dimgray" onclick="click('SEQNONE')"> No Sequence </text> 
</g>
<g transform="translate(10 550)" font-family="Arial,Helvetica">
     <text font-size="12px" x="5" y="0" fill="dimgray" font-weight="bold">Other display options</text>

     <circle cx="10" cy="15" r="5" stroke-width="1" stroke="rgb(100,100,100)" fill="white" onclick="click2('PROBS')" />
     <circle cx="10" cy="15" r="3" id="rbPROBS"  style="fill:black;visibility:visible;" onclick="click2('PROBS')" />
     <text x="20" y="20" font-size="12px" fill="dimgray" onclick="click2('PROBS')"> Base-pair probabilities </text> 

     <circle cx="10" cy="35" r="5" stroke-width="1" stroke="rgb(100,100,100)" fill="white" onclick="click2('POSEN')" />
     <circle cx="10" cy="35" r="3" id="rbPOSEN"  style="fill:black;visibility:hidden;" onclick="click2('POSEN')" />
     <text x="20" y="40" font-size="12px" fill="dimgray" onclick="click2('POSEN')"> Positional entropy </text>

     <circle cx="10" cy="55" r="5" stroke-width="1" stroke="rgb(100,100,100)" fill="white" onclick="click2('NONE')" />
     <circle cx="10" cy="55" r="3" id="rbNONE"  style="fill:black;visibility:hidden;" onclick="click2('NONE')" />
     <text x="20" y="60" font-size="12px" fill="dimgray" onclick="click2('NONE')"> None </text>
</g>
<g id="legend_posen" transform="translate(230 550)" font-family="Arial,Helvetica">
<text x="0" y="30" font-size="12px" fill="dimgray">0</text>
<rect style="stroke: #dc1400; stroke-width:0;fill: #dc1400" height="10" x="0" y="30" width="2" /><rect style="stroke: #dc2800; stroke-width:0;fill: #dc2800" height="10" x="2" y="30" width="2" /><rect style="stroke: #dc3c00; stroke-width:0;fill: #dc3c00" height="10" x="4" y="30" width="2" /><rect style="stroke: #dc5000; stroke-width:0;fill: #dc5000" height="10" x="6" y="30" width="2" /><rect style="stroke: #dc6400; stroke-width:0;fill: #dc6400" height="10" x="8" y="30" width="2" /><rect style="stroke: #dc7800; stroke-width:0;fill: #dc7800" height="10" x="10" y="30" width="2" /><rect style="stroke: #dc8c00; stroke-width:0;fill: #dc8c00" height="10" x="12" y="30" width="2" /><rect style="stroke: #dca000; stroke-width:0;fill: #dca000" height="10" x="14" y="30" width="2" /><rect style="stroke: #dcb400; stroke-width:0;fill: #dcb400" height="10" x="16" y="30" width="2" /><rect style="stroke: #dcc800; stroke-width:0;fill: #dcc800" height="10" x="18" y="30" width="2" /><rect style="stroke: #dcdc00; stroke-width:0;fill: #dcdc00" height="10" x="20" y="30" width="2" /><rect style="stroke: #c8dc00; stroke-width:0;fill: #c8dc00" height="10" x="22" y="30" width="2" /><rect style="stroke: #b4dc00; stroke-width:0;fill: #b4dc00" height="10" x="24" y="30" width="2" /><rect style="stroke: #a0dc00; stroke-width:0;fill: #a0dc00" height="10" x="26" y="30" width="2" /><rect style="stroke: #8cdc00; stroke-width:0;fill: #8cdc00" height="10" x="28" y="30" width="2" /><rect style="stroke: #78dc00; stroke-width:0;fill: #78dc00" height="10" x="30" y="30" width="2" /><rect style="stroke: #64dc00; stroke-width:0;fill: #64dc00" height="10" x="32" y="30" width="2" /><rect style="stroke: #50dc00; stroke-width:0;fill: #50dc00" height="10" x="34" y="30" width="2" /><rect style="stroke: #3cdc00; stroke-width:0;fill: #3cdc00" height="10" x="36" y="30" width="2" /><rect style="stroke: #28dc00; stroke-width:0;fill: #28dc00" height="10" x="38" y="30" width="2" /><rect style="stroke: #14dc00; stroke-width:0;fill: #14dc00" height="10" x="40" y="30" width="2" /><rect style="stroke: #00dc00; stroke-width:0;fill: #00dc00" height="10" x="42" y="30" width="2" /><rect style="stroke: #00dc14; stroke-width:0;fill: #00dc14" height="10" x="44" y="30" width="2" /><rect style="stroke: #00dc28; stroke-width:0;fill: #00dc28" height="10" x="46" y="30" width="2" /><rect style="stroke: #00dc3c; stroke-width:0;fill: #00dc3c" height="10" x="48" y="30" width="2" /><rect style="stroke: #00dc50; stroke-width:0;fill: #00dc50" height="10" x="50" y="30" width="2" /><rect style="stroke: #00dc64; stroke-width:0;fill: #00dc64" height="10" x="52" y="30" width="2" /><rect style="stroke: #00dc78; stroke-width:0;fill: #00dc78" height="10" x="54" y="30" width="2" /><rect style="stroke: #00dc8c; stroke-width:0;fill: #00dc8c" height="10" x="56" y="30" width="2" /><rect style="stroke: #00dca0; stroke-width:0;fill: #00dca0" height="10" x="58" y="30" width="2" /><rect style="stroke: #00dcb4; stroke-width:0;fill: #00dcb4" height="10" x="60" y="30" width="2" /><rect style="stroke: #00dcc8; stroke-width:0;fill: #00dcc8" height="10" x="62" y="30" width="2" /><rect style="stroke: #00dcdc; stroke-width:0;fill: #00dcdc" height="10" x="64" y="30" width="2" /><rect style="stroke: #00c8dc; stroke-width:0;fill: #00c8dc" height="10" x="66" y="30" width="2" /><rect style="stroke: #00b4dc; stroke-width:0;fill: #00b4dc" height="10" x="68" y="30" width="2" /><rect style="stroke: #00a0dc; stroke-width:0;fill: #00a0dc" height="10" x="70" y="30" width="2" /><rect style="stroke: #008cdc; stroke-width:0;fill: #008cdc" height="10" x="72" y="30" width="2" /><rect style="stroke: #0078dc; stroke-width:0;fill: #0078dc" height="10" x="74" y="30" width="2" /><rect style="stroke: #0064dc; stroke-width:0;fill: #0064dc" height="10" x="76" y="30" width="2" /><rect style="stroke: #0050dc; stroke-width:0;fill: #0050dc" height="10" x="78" y="30" width="2" />
<text x="80" y="30" font-size="12px" fill="dimgray">2.2</text>
</g>

<g id="legend_probs" transform="translate(230 550)" font-family="Arial,Helvetica">
<text x="0" y="30" font-size="12px" fill="dimgray">0</text>
<rect style="stroke: #0050dc; stroke-width:0;fill: #0050dc" height="10" x="0" y="30" width="2" /><rect style="stroke: #0064dc; stroke-width:0;fill: #0064dc" height="10" x="2" y="30" width="2" /><rect style="stroke: #0078dc; stroke-width:0;fill: #0078dc" height="10" x="4" y="30" width="2" /><rect style="stroke: #008cdc; stroke-width:0;fill: #008cdc" height="10" x="6" y="30" width="2" /><rect style="stroke: #00a0dc; stroke-width:0;fill: #00a0dc" height="10" x="8" y="30" width="2" /><rect style="stroke: #00b4dc; stroke-width:0;fill: #00b4dc" height="10" x="10" y="30" width="2" /><rect style="stroke: #00c8dc; stroke-width:0;fill: #00c8dc" height="10" x="12" y="30" width="2" /><rect style="stroke: #00dcdc; stroke-width:0;fill: #00dcdc" height="10" x="14" y="30" width="2" /><rect style="stroke: #00dcc8; stroke-width:0;fill: #00dcc8" height="10" x="16" y="30" width="2" /><rect style="stroke: #00dcb4; stroke-width:0;fill: #00dcb4" height="10" x="18" y="30" width="2" /><rect style="stroke: #00dca0; stroke-width:0;fill: #00dca0" height="10" x="20" y="30" width="2" /><rect style="stroke: #00dc8c; stroke-width:0;fill: #00dc8c" height="10" x="22" y="30" width="2" /><rect style="stroke: #00dc78; stroke-width:0;fill: #00dc78" height="10" x="24" y="30" width="2" /><rect style="stroke: #00dc64; stroke-width:0;fill: #00dc64" height="10" x="26" y="30" width="2" /><rect style="stroke: #00dc50; stroke-width:0;fill: #00dc50" height="10" x="28" y="30" width="2" /><rect style="stroke: #00dc3c; stroke-width:0;fill: #00dc3c" height="10" x="30" y="30" width="2" /><rect style="stroke: #00dc28; stroke-width:0;fill: #00dc28" height="10" x="32" y="30" width="2" /><rect style="stroke: #00dc14; stroke-width:0;fill: #00dc14" height="10" x="34" y="30" width="2" /><rect style="stroke: #00dc00; stroke-width:0;fill: #00dc00" height="10" x="36" y="30" width="2" /><rect style="stroke: #14dc00; stroke-width:0;fill: #14dc00" height="10" x="38" y="30" width="2" /><rect style="stroke: #28dc00; stroke-width:0;fill: #28dc00" height="10" x="40" y="30" width="2" /><rect style="stroke: #3cdc00; stroke-width:0;fill: #3cdc00" height="10" x="42" y="30" width="2" /><rect style="stroke: #50dc00; stroke-width:0;fill: #50dc00" height="10" x="44" y="30" width="2" /><rect style="stroke: #64dc00; stroke-width:0;fill: #64dc00" height="10" x="46" y="30" width="2" /><rect style="stroke: #78dc00; stroke-width:0;fill: #78dc00" height="10" x="48" y="30" width="2" /><rect style="stroke: #8cdc00; stroke-width:0;fill: #8cdc00" height="10" x="50" y="30" width="2" /><rect style="stroke: #a0dc00; stroke-width:0;fill: #a0dc00" height="10" x="52" y="30" width="2" /><rect style="stroke: #b4dc00; stroke-width:0;fill: #b4dc00" height="10" x="54" y="30" width="2" /><rect style="stroke: #c8dc00; stroke-width:0;fill: #c8dc00" height="10" x="56" y="30" width="2" /><rect style="stroke: #dcdc00; stroke-width:0;fill: #dcdc00" height="10" x="58" y="30" width="2" /><rect style="stroke: #dcc800; stroke-width:0;fill: #dcc800" height="10" x="60" y="30" width="2" /><rect style="stroke: #dcb400; stroke-width:0;fill: #dcb400" height="10" x="62" y="30" width="2" /><rect style="stroke: #dca000; stroke-width:0;fill: #dca000" height="10" x="64" y="30" width="2" /><rect style="stroke: #dc8c00; stroke-width:0;fill: #dc8c00" height="10" x="66" y="30" width="2" /><rect style="stroke: #dc7800; stroke-width:0;fill: #dc7800" height="10" x="68" y="30" width="2" /><rect style="stroke: #dc6400; stroke-width:0;fill: #dc6400" height="10" x="70" y="30" width="2" /><rect style="stroke: #dc5000; stroke-width:0;fill: #dc5000" height="10" x="72" y="30" width="2" /><rect style="stroke: #dc3c00; stroke-width:0;fill: #dc3c00" height="10" x="74" y="30" width="2" /><rect style="stroke: #dc2800; stroke-width:0;fill: #dc2800" height="10" x="76" y="30" width="2" /><rect style="stroke: #dc1400; stroke-width:0;fill: #dc1400" height="10" x="78" y="30" width="2" />
<text x="80" y="30" font-size="12px" fill="dimgray">1</text>
</g>

<g transform="translate(200 470)" font-family="Arial,Helvetica"><text font-size="12px" x="5" y="0" fill="red" font-weight="bold">Centroid secondary structure</text></g>
<g transform="scale(0.926545232496011,0.926545232496011) translate(131.239489688644,0)">
<circle id="c0" cx="154.6247673" cy="44.32394409" r="8" style="fill:#ffffff" stroke="black" stroke-width="0"/>
<circle id="c10" cx="133.58156967" cy="179.03103638" r="8" style="fill:#ffffff" stroke="black" stroke-width="0"/>
<circle id="c11" cx="124.09850693" cy="190.6468811" r="8" style="fill:#ffffff" stroke="black" stroke-width="0"/>
<circle id="c12" cx="121.6869545" cy="205.54823303" r="8" style="fill:#ffffff" stroke="black" stroke-width="0"/>
<circle id="c13" cx="127.09341812" cy="219.74917602" r="8" style="fill:#ffffff" stroke="black" stroke-width="0"/>
<circle id="c20" cx="115.07075882" cy="304.99539185" r="8" style="fill:#ffffff" stroke="black" stroke-width="0"/>
<circle id="c21" cx="103.30643845" cy="309.45396423" r="8" style="fill:#ffffff" stroke="black" stroke-width="0"/>
<circle id="c22" cx="92.97851944" cy="316.63813782" r="8" style="fill:#ffffff" stroke="black" stroke-width="0"/>
<circle id="c23" cx="84.70636368" cy="326.11705017" r="8" style="fill:#ffffff" stroke="black" stroke-width="0"/>
<circle id="c24" cx="78.98607254" cy="337.32225037" r="8" style="fill:#ffffff" stroke="black" stroke-width="0"/>
<circle id="c25" cx="76.16069031" cy="349.58174896" r="8" style="fill:#ffffff" stroke="black" stroke-width="0"/>
<circle id="c26" cx="76.39965439" cy="362.16034698" r="8" style="fill:#ffffff" stroke="black" stroke-width="0"/>
<circle id="c31" cx="25.70601845" cy="393.0214653" r="8" style="fill:#ffffff" stroke="black" stroke-width="0"/>
<circle id="c32" cx="12.0158968" cy="400.91805267" r="8" style="fill:#ffffff" stroke="black" stroke-width="0"/>
<circle id="c33" cx="8" cy="416.20360565" r="8" style="fill:#ffffff" stroke="black" stroke-width="0"/>
<circle id="c34" cx="16.04088783" cy="429.80947494" r="8" style="fill:#ffffff" stroke="black" stroke-width="0"/>
<circle id="c35" cx="31.36804485" cy="433.66353989" r="8" style="fill:#ffffff" stroke="black" stroke-width="0"/>
<circle id="c36" cx="44.88813973" cy="425.47925186" r="8" style="fill:#ffffff" stroke="black" stroke-width="0"/>
<circle id="c41" cx="91.99850845" cy="393.0973053" r="8" style="fill:#ffffff" stroke="black" stroke-width="0"/>
<circle id="c42" cx="97.54642105" cy="398.29438019" r="8" style="fill:#ffffff" stroke="black" stroke-width="0"/>
<circle id="c43" cx="103.86339188" cy="402.6792984" r="8" style="fill:#ffffff" stroke="black" stroke-width="0"/>
<circle id="c44" cx="110.82955551" cy="406.13796234" r="8" style="fill:#ffffff" stroke="black" stroke-width="0"/>
<circle id="c45" cx="118.30810928" cy="408.57410049" r="8" style="fill:#ffffff" stroke="black" stroke-width="0"/>
<circle id="c46" cx="126.14797592" cy="409.91179275" r="8" style="fill:#ffffff" stroke="black" stroke-width="0"/>
<circle id="c50" cx="127.90940476" cy="452.17099094" r="8" style="fill:#ffffff" stroke="black" stroke-width="0"/>
<circle id="c51" cx="129.66685105" cy="467.87726211" r="8" style="fill:#ffffff" stroke="black" stroke-width="0"/>
<circle id="c52" cx="142.06752396" cy="477.67515564" r="8" style="fill:#ffffff" stroke="black" stroke-width="0"/>
<circle id="c53" cx="157.75434494" cy="475.75175476" r="8" style="fill:#ffffff" stroke="black" stroke-width="0"/>
<circle id="c54" cx="167.42057419" cy="463.24818039" r="8" style="fill:#ffffff" stroke="black" stroke-width="0"/>
<circle id="c55" cx="165.33143234" cy="447.58258057" r="8" style="fill:#ffffff" stroke="black" stroke-width="0"/>
<circle id="c62" cx="185.32053757" cy="434.63823128" r="8" style="fill:#ffffff" stroke="black" stroke-width="0"/>
<circle id="c63" cx="194.00974655" cy="447.49424839" r="8" style="fill:#ffffff" stroke="black" stroke-width="0"/>
<circle id="c64" cx="208.60749436" cy="452.75593328" r="8" style="fill:#ffffff" stroke="black" stroke-width="0"/>
<circle id="c65" cx="223.50065231" cy="448.40006018" r="8" style="fill:#ffffff" stroke="black" stroke-width="0"/>
<circle id="c66" cx="232.96249008" cy="436.10155106" r="8" style="fill:#ffffff" stroke="black" stroke-width="0"/>
<circle id="c67" cx="233.35473251" cy="420.58943558" r="8" style="fill:#ffffff" stroke="black" stroke-width="0"/>
<circle id="c68" cx="224.52656174" cy="407.82843399" r="8" style="fill:#ffffff" stroke="black" stroke-width="0"/>
<circle id="c69" cx="209.87260056" cy="402.72541809" r="8" style="fill:#ffffff" stroke="black" stroke-width="0"/>
<circle id="c73" cx="180.01334763" cy="369.64846039" r="8" style="fill:#ffffff" stroke="black" stroke-width="0"/>
<circle id="c74" cx="180.83742905" cy="348.79370117" r="8" style="fill:#ffffff" stroke="black" stroke-width="0"/>
<circle id="c75" cx="173.84621811" cy="329.47499084" r="8" style="fill:#ffffff" stroke="black" stroke-width="0"/>
<circle id="c76" cx="160.30337143" cy="314.46220398" r="8" style="fill:#ffffff" stroke="black" stroke-width="0"/>
<circle id="c83" cx="168.00207138" cy="226.03675842" r="8" style="fill:#ffffff" stroke="black" stroke-width="0"/>
<circle id="c84" cx="177.42356491" cy="214.11483765" r="8" style="fill:#ffffff" stroke="black" stroke-width="0"/>
<circle id="c85" cx="179.59823227" cy="199.17706299" r="8" style="fill:#ffffff" stroke="black" stroke-width="0"/>
<circle id="c86" cx="174.04111862" cy="185.24960327" r="8" style="fill:#ffffff" stroke="black" stroke-width="0"/>
<circle id="c96" cx="194.42196274" cy="50.44067383" r="8" style="fill:#ffffff" stroke="black" stroke-width="0"/>
<circle id="c97" cx="201.49329758" cy="36.62850952" r="8" style="fill:#ffffff" stroke="black" stroke-width="0"/>
<circle id="c98" cx="199.0622673" cy="21.30303955" r="8" style="fill:#ffffff" stroke="black" stroke-width="0"/>
<circle id="c99" cx="188.06368637" cy="10.35723877" r="8" style="fill:#ffffff" stroke="black" stroke-width="0"/>
<circle id="c100" cx="172.72669602" cy="8" r="8" style="fill:#ffffff" stroke="black" stroke-width="0"/>
<circle id="c101" cx="158.9487114" cy="15.13769531" r="8" style="fill:#ffffff" stroke="black" stroke-width="0"/>
<circle id="c1" cx="165.74145126" cy="55.14978027" r="8" style="fill:#ffffff" stroke="black" stroke-width="0"/>
<circle id="c2" cx="163.46273422" cy="69.97567749" r="8" style="fill:#ffffff" stroke="black" stroke-width="0"/>
<circle id="c3" cx="161.18403244" cy="84.80160522" r="8" style="fill:#ffffff" stroke="black" stroke-width="0"/>
<circle id="c4" cx="158.9053154" cy="99.62750244" r="8" style="fill:#ffffff" stroke="black" stroke-width="0"/>
<circle id="c5" cx="156.62661362" cy="114.45339966" r="8" style="fill:#ffffff" stroke="black" stroke-width="0"/>
<circle id="c6" cx="154.34789658" cy="129.27929687" r="8" style="fill:#ffffff" stroke="black" stroke-width="0"/>
<circle id="c7" cx="152.06918717" cy="144.10522461" r="8" style="fill:#ffffff" stroke="black" stroke-width="0"/>
<circle id="c8" cx="149.79047775" cy="158.93112183" r="8" style="fill:#ffffff" stroke="black" stroke-width="0"/>
<circle id="c9" cx="147.51176834" cy="173.75701904" r="8" style="fill:#ffffff" stroke="black" stroke-width="0"/>
<circle id="c14" cx="138.95952225" cy="229.40023804" r="8" style="fill:#ffffff" stroke="black" stroke-width="0"/>
<circle id="c15" cx="136.68081284" cy="244.22615051" r="8" style="fill:#ffffff" stroke="black" stroke-width="0"/>
<circle id="c16" cx="134.40210343" cy="259.05204773" r="8" style="fill:#ffffff" stroke="black" stroke-width="0"/>
<circle id="c17" cx="132.12339401" cy="273.8779602" r="8" style="fill:#ffffff" stroke="black" stroke-width="0"/>
<circle id="c18" cx="129.84467697" cy="288.70385742" r="8" style="fill:#ffffff" stroke="black" stroke-width="0"/>
<circle id="c19" cx="127.56596756" cy="303.5297699" r="8" style="fill:#ffffff" stroke="black" stroke-width="0"/>
<circle id="c27" cx="79.68863297" cy="374.30369568" r="8" style="fill:#ffffff" stroke="black" stroke-width="0"/>
<circle id="c28" cx="66.775177" cy="381.93537903" r="8" style="fill:#ffffff" stroke="black" stroke-width="0"/>
<circle id="c29" cx="53.86171723" cy="389.56706238" r="8" style="fill:#ffffff" stroke="black" stroke-width="0"/>
<circle id="c30" cx="40.9482584" cy="397.19874573" r="8" style="fill:#ffffff" stroke="black" stroke-width="0"/>
<circle id="c37" cx="48.5799408" cy="410.1122055" r="8" style="fill:#ffffff" stroke="black" stroke-width="0"/>
<circle id="c38" cx="61.49340058" cy="402.48052216" r="8" style="fill:#ffffff" stroke="black" stroke-width="0"/>
<circle id="c39" cx="74.40686035" cy="394.84883881" r="8" style="fill:#ffffff" stroke="black" stroke-width="0"/>
<circle id="c40" cx="87.32031632" cy="387.21715546" r="8" style="fill:#ffffff" stroke="black" stroke-width="0"/>
<circle id="c47" cx="134.1868248" cy="410.0975914" r="8" style="fill:#ffffff" stroke="black" stroke-width="0"/>
<circle id="c48" cx="136.01234055" cy="424.98609352" r="8" style="fill:#ffffff" stroke="black" stroke-width="0"/>
<circle id="c49" cx="137.83786392" cy="439.87459469" r="8" style="fill:#ffffff" stroke="black" stroke-width="0"/>
<circle id="c56" cx="152.72636032" cy="438.04907799" r="8" style="fill:#ffffff" stroke="black" stroke-width="0"/>
<circle id="c57" cx="150.90084458" cy="423.16057587" r="8" style="fill:#ffffff" stroke="black" stroke-width="0"/>
<circle id="c58" cx="149.07532883" cy="408.27207565" r="8" style="fill:#ffffff" stroke="black" stroke-width="0"/>
<circle id="c59" cx="162.1036644" cy="400.83820724" r="8" style="fill:#ffffff" stroke="black" stroke-width="0"/>
<circle id="c60" cx="173.99235153" cy="409.98474503" r="8" style="fill:#ffffff" stroke="black" stroke-width="0"/>
<circle id="c61" cx="185.88103867" cy="419.13128281" r="8" style="fill:#ffffff" stroke="black" stroke-width="0"/>
<circle id="c70" cx="195.02756882" cy="407.24259567" r="8" style="fill:#ffffff" stroke="black" stroke-width="0"/>
<circle id="c71" cx="183.13889694" cy="398.09605789" r="8" style="fill:#ffffff" stroke="black" stroke-width="0"/>
<circle id="c72" cx="171.25020981" cy="388.94952393" r="8" style="fill:#ffffff" stroke="black" stroke-width="0"/>
<circle id="c77" cx="142.39187241" cy="305.80848694" r="8" style="fill:#ffffff" stroke="black" stroke-width="0"/>
<circle id="c78" cx="144.67058182" cy="290.98257446" r="8" style="fill:#ffffff" stroke="black" stroke-width="0"/>
<circle id="c79" cx="146.94929886" cy="276.15666199" r="8" style="fill:#ffffff" stroke="black" stroke-width="0"/>
<circle id="c80" cx="149.22800827" cy="261.33076477" r="8" style="fill:#ffffff" stroke="black" stroke-width="0"/>
<circle id="c81" cx="151.50671768" cy="246.50485229" r="8" style="fill:#ffffff" stroke="black" stroke-width="0"/>
<circle id="c82" cx="153.78542709" cy="231.67895508" r="8" style="fill:#ffffff" stroke="black" stroke-width="0"/>
<circle id="c87" cx="162.33767319" cy="176.03573608" r="8" style="fill:#ffffff" stroke="black" stroke-width="0"/>
<circle id="c88" cx="164.61639023" cy="161.20983887" r="8" style="fill:#ffffff" stroke="black" stroke-width="0"/>
<circle id="c89" cx="166.89509201" cy="146.38394165" r="8" style="fill:#ffffff" stroke="black" stroke-width="0"/>
<circle id="c90" cx="169.17380905" cy="131.55801392" r="8" style="fill:#ffffff" stroke="black" stroke-width="0"/>
<circle id="c91" cx="171.45251084" cy="116.7321167" r="8" style="fill:#ffffff" stroke="black" stroke-width="0"/>
<circle id="c92" cx="173.73122788" cy="101.90621948" r="8" style="fill:#ffffff" stroke="black" stroke-width="0"/>
<circle id="c93" cx="176.00992966" cy="87.08029175" r="8" style="fill:#ffffff" stroke="black" stroke-width="0"/>
<circle id="c94" cx="178.2886467" cy="72.25439453" r="8" style="fill:#ffffff" stroke="black" stroke-width="0"/>
<circle id="c95" cx="180.56736374" cy="57.42849731" r="8" style="fill:#ffffff" stroke="black" stroke-width="0"/>
<polyline style="stroke: black; fill: none; stroke-width: 1.5" id="outline" points="154.6247673,44.32394409
165.74145126,55.14978027
163.46273422,69.97567749
161.18403244,84.80160522
158.9053154,99.62750244
156.62661362,114.45339966
154.34789658,129.27929687
152.06918717,144.10522461
149.79047775,158.93112183
147.51176834,173.75701904
133.58156967,179.03103638
124.09850693,190.6468811
121.6869545,205.54823303
127.09341812,219.74917602
138.95952225,229.40023804
136.68081284,244.22615051
134.40210343,259.05204773
132.12339401,273.8779602
129.84467697,288.70385742
127.56596756,303.5297699
115.07075882,304.99539185
103.30643845,309.45396423
92.97851944,316.63813782
84.70636368,326.11705017
78.98607254,337.32225037
76.16069031,349.58174896
76.39965439,362.16034698
79.68863297,374.30369568
66.775177,381.93537903
53.86171723,389.56706238
40.9482584,397.19874573
25.70601845,393.0214653
12.0158968,400.91805267
8,416.20360565
16.04088783,429.80947494
31.36804485,433.66353989
44.88813973,425.47925186
48.5799408,410.1122055
61.49340058,402.48052216
74.40686035,394.84883881
87.32031632,387.21715546
91.99850845,393.0973053
97.54642105,398.29438019
103.86339188,402.6792984
110.82955551,406.13796234
118.30810928,408.57410049
126.14797592,409.91179275
134.1868248,410.0975914
136.01234055,424.98609352
137.83786392,439.87459469
127.90940476,452.17099094
129.66685105,467.87726211
142.06752396,477.67515564
157.75434494,475.75175476
167.42057419,463.24818039
165.33143234,447.58258057
152.72636032,438.04907799
150.90084458,423.16057587
149.07532883,408.27207565
162.1036644,400.83820724
173.99235153,409.98474503
185.88103867,419.13128281
185.32053757,434.63823128
194.00974655,447.49424839
208.60749436,452.75593328
223.50065231,448.40006018
232.96249008,436.10155106
233.35473251,420.58943558
224.52656174,407.82843399
209.87260056,402.72541809
195.02756882,407.24259567
183.13889694,398.09605789
171.25020981,388.94952393
180.01334763,369.64846039
180.83742905,348.79370117
173.84621811,329.47499084
160.30337143,314.46220398
142.39187241,305.80848694
144.67058182,290.98257446
146.94929886,276.15666199
149.22800827,261.33076477
151.50671768,246.50485229
153.78542709,231.67895508
168.00207138,226.03675842
177.42356491,214.11483765
179.59823227,199.17706299
174.04111862,185.24960327
162.33767319,176.03573608
164.61639023,161.20983887
166.89509201,146.38394165
169.17380905,131.55801392
171.45251084,116.7321167
173.73122788,101.90621948
176.00992966,87.08029175
178.2886467,72.25439453
180.56736374,57.42849731
194.42196274,50.44067383
201.49329758,36.62850952
199.0622673,21.30303955
188.06368637,10.35723877
172.72669602,8
158.9487114,15.13769531
" />
<g style="stroke: black; stroke-width: 1" id="pairs"><line id="1,95" x1="165.74145126" y1="55.14978027" x2="180.56736374" y2="57.42849731" /><line id="2,94" x1="163.46273422" y1="69.97567749" x2="178.2886467" y2="72.25439453" /><line id="3,93" x1="161.18403244" y1="84.80160522" x2="176.00992966" y2="87.08029175" /><line id="4,92" x1="158.9053154" y1="99.62750244" x2="173.73122788" y2="101.90621948" /><line id="5,91" x1="156.62661362" y1="114.45339966" x2="171.45251084" y2="116.7321167" /><line id="6,90" x1="154.34789658" y1="129.27929687" x2="169.17380905" y2="131.55801392" /><line id="7,89" x1="152.06918717" y1="144.10522461" x2="166.89509201" y2="146.38394165" /><line id="8,88" x1="149.79047775" y1="158.93112183" x2="164.61639023" y2="161.20983887" /><line id="9,87" x1="147.51176834" y1="173.75701904" x2="162.33767319" y2="176.03573608" /><line id="14,82" x1="138.95952225" y1="229.40023804" x2="153.78542709" y2="231.67895508" /><line id="15,81" x1="136.68081284" y1="244.22615051" x2="151.50671768" y2="246.50485229" /><line id="16,80" x1="134.40210343" y1="259.05204773" x2="149.22800827" y2="261.33076477" /><line id="17,79" x1="132.12339401" y1="273.8779602" x2="146.94929886" y2="276.15666199" /><line id="18,78" x1="129.84467697" y1="288.70385742" x2="144.67058182" y2="290.98257446" /><line id="19,77" x1="127.56596756" y1="303.5297699" x2="142.39187241" y2="305.80848694" /><line id="27,40" x1="79.68863297" y1="374.30369568" x2="87.32031632" y2="387.21715546" /><line id="28,39" x1="66.775177" y1="381.93537903" x2="74.40686035" y2="394.84883881" /><line id="29,38" x1="53.86171723" y1="389.56706238" x2="61.49340058" y2="402.48052216" /><line id="30,37" x1="40.9482584" y1="397.19874573" x2="48.5799408" y2="410.1122055" /><line id="47,58" x1="134.1868248" y1="410.0975914" x2="149.07532883" y2="408.27207565" /><line id="48,57" x1="136.01234055" y1="424.98609352" x2="150.90084458" y2="423.16057587" /><line id="49,56" x1="137.83786392" y1="439.87459469" x2="152.72636032" y2="438.04907799" /><line id="59,72" x1="162.1036644" y1="400.83820724" x2="171.25020981" y2="388.94952393" /><line id="60,71" x1="173.99235153" y1="409.98474503" x2="183.13889694" y2="398.09605789" /><line id="61,70" x1="185.88103867" y1="419.13128281" x2="195.02756882" y2="407.24259567" /></g>
<g style="font-family: SansSerif" transform="translate(-6, 6)" id="seq"><text id="t0" x="154.6247673" y="44.32394409" fill="black">U</text>
<text id="t1" x="165.74145126" y="55.14978027" fill="black">U</text>
<text id="t2" x="163.46273422" y="69.97567749" fill="black">C</text>
<text id="t3" x="161.18403244" y="84.80160522" fill="black">U</text>
<text id="t4" x="158.9053154" y="99.62750244" fill="black">C</text>
<text id="t5" x="156.62661362" y="114.45339966" fill="black">C</text>
<text id="t6" x="154.34789658" y="129.27929687" fill="black">U</text>
<text id="t7" x="152.06918717" y="144.10522461" fill="black">U</text>
<text id="t8" x="149.79047775" y="158.93112183" fill="black">C</text>
<text id="t9" x="147.51176834" y="173.75701904" fill="black">G</text>
<text id="t10" x="133.58156967" y="179.03103638" fill="black">G</text>
<text id="t11" x="124.09850693" y="190.6468811" fill="black">U</text>
<text id="t12" x="121.6869545" y="205.54823303" fill="black">A</text>
<text id="t13" x="127.09341812" y="219.74917602" fill="black">C</text>
<text id="t14" x="138.95952225" y="229.40023804" fill="black">A</text>
<text id="t15" x="136.68081284" y="244.22615051" fill="black">U</text>
<text id="t16" x="134.40210343" y="259.05204773" fill="black">C</text>
<text id="t17" x="132.12339401" y="273.8779602" fill="black">C</text>
<text id="t18" x="129.84467697" y="288.70385742" fill="black">A</text>
<text id="t19" x="127.56596756" y="303.5297699" fill="black">G</text>
<text id="t20" x="115.07075882" y="304.99539185" fill="black">C</text>
<text id="t21" x="103.30643845" y="309.45396423" fill="black">U</text>
<text id="t22" x="92.97851944" y="316.63813782" fill="black">G</text>
<text id="t23" x="84.70636368" y="326.11705017" fill="black">A</text>
<text id="t24" x="78.98607254" y="337.32225037" fill="black">U</text>
<text id="t25" x="76.16069031" y="349.58174896" fill="black">G</text>
<text id="t26" x="76.39965439" y="362.16034698" fill="black">A</text>
<text id="t27" x="79.68863297" y="374.30369568" fill="black">G</text>
<text id="t28" x="66.775177" y="381.93537903" fill="black">U</text>
<text id="t29" x="53.86171723" y="389.56706238" fill="black">C</text>
<text id="t30" x="40.9482584" y="397.19874573" fill="black">C</text>
<text id="t31" x="25.70601845" y="393.0214653" fill="black">C</text>
<text id="t32" x="12.0158968" y="400.91805267" fill="black">A</text>
<text id="t33" x="8" y="416.20360565" fill="black">A</text>
<text id="t34" x="16.04088783" y="429.80947494" fill="black">A</text>
<text id="t35" x="31.36804485" y="433.66353989" fill="black">U</text>
<text id="t36" x="44.88813973" y="425.47925186" fill="black">A</text>
<text id="t37" x="48.5799408" y="410.1122055" fill="black">G</text>
<text id="t38" x="61.49340058" y="402.48052216" fill="black">G</text>
<text id="t39" x="74.40686035" y="394.84883881" fill="black">A</text>
<text id="t40" x="87.32031632" y="387.21715546" fill="black">C</text>
<text id="t41" x="91.99850845" y="393.0973053" fill="black">G</text>
<text id="t42" x="97.54642105" y="398.29438019" fill="black">A</text>
<text id="t43" x="103.86339188" y="402.6792984" fill="black">A</text>
<text id="t44" x="110.82955551" y="406.13796234" fill="black">A</text>
<text id="t45" x="118.30810928" y="408.57410049" fill="black">U</text>
<text id="t46" x="126.14797592" y="409.91179275" fill="black">U</text>
<text id="t47" x="134.1868248" y="410.0975914" fill="black">U</text>
<text id="t48" x="136.01234055" y="424.98609352" fill="black">G</text>
<text id="t49" x="137.83786392" y="439.87459469" fill="black">C</text>
<text id="t50" x="127.90940476" y="452.17099094" fill="black">A</text>
<text id="t51" x="129.66685105" y="467.87726211" fill="black">G</text>
<text id="t52" x="142.06752396" y="477.67515564" fill="black">A</text>
<text id="t53" x="157.75434494" y="475.75175476" fill="black">A</text>
<text id="t54" x="167.42057419" y="463.24818039" fill="black">G</text>
<text id="t55" x="165.33143234" y="447.58258057" fill="black">A</text>
<text id="t56" x="152.72636032" y="438.04907799" fill="black">G</text>
<text id="t57" x="150.90084458" y="423.16057587" fill="black">C</text>
<text id="t58" x="149.07532883" y="408.27207565" fill="black">A</text>
<text id="t59" x="162.1036644" y="400.83820724" fill="black">C</text>
<text id="t60" x="173.99235153" y="409.98474503" fill="black">G</text>
<text id="t61" x="185.88103867" y="419.13128281" fill="black">U</text>
<text id="t62" x="185.32053757" y="434.63823128" fill="black">A</text>
<text id="t63" x="194.00974655" y="447.49424839" fill="black">U</text>
<text id="t64" x="208.60749436" y="452.75593328" fill="black">A</text>
<text id="t65" x="223.50065231" y="448.40006018" fill="black">C</text>
<text id="t66" x="232.96249008" y="436.10155106" fill="black">G</text>
<text id="t67" x="233.35473251" y="420.58943558" fill="black">C</text>
<text id="t68" x="224.52656174" y="407.82843399" fill="black">A</text>
<text id="t69" x="209.87260056" y="402.72541809" fill="black">A</text>
<text id="t70" x="195.02756882" y="407.24259567" fill="black">G</text>
<text id="t71" x="183.13889694" y="398.09605789" fill="black">C</text>
<text id="t72" x="171.25020981" y="388.94952393" fill="black">G</text>
<text id="t73" x="180.01334763" y="369.64846039" fill="black">G</text>
<text id="t74" x="180.83742905" y="348.79370117" fill="black">G</text>
<text id="t75" x="173.84621811" y="329.47499084" fill="black">U</text>
<text id="t76" x="160.30337143" y="314.46220398" fill="black">C</text>
<text id="t77" x="142.39187241" y="305.80848694" fill="black">C</text>
<text id="t78" x="144.67058182" y="290.98257446" fill="black">U</text>
<text id="t79" x="146.94929886" y="276.15666199" fill="black">G</text>
<text id="t80" x="149.22800827" y="261.33076477" fill="black">G</text>
<text id="t81" x="151.50671768" y="246.50485229" fill="black">A</text>
<text id="t82" x="153.78542709" y="231.67895508" fill="black">U</text>
<text id="t83" x="168.00207138" y="226.03675842" fill="black">U</text>
<text id="t84" x="177.42356491" y="214.11483765" fill="black">C</text>
<text id="t85" x="179.59823227" y="199.17706299" fill="black">C</text>
<text id="t86" x="174.04111862" y="185.24960327" fill="black">A</text>
<text id="t87" x="162.33767319" y="176.03573608" fill="black">C</text>
<text id="t88" x="164.61639023" y="161.20983887" fill="black">G</text>
<text id="t89" x="166.89509201" y="146.38394165" fill="black">A</text>
<text id="t90" x="169.17380905" y="131.55801392" fill="black">A</text>
<text id="t91" x="171.45251084" y="116.7321167" fill="black">G</text>
<text id="t92" x="173.73122788" y="101.90621948" fill="black">G</text>
<text id="t93" x="176.00992966" y="87.08029175" fill="black">A</text>
<text id="t94" x="178.2886467" y="72.25439453" fill="black">G</text>
<text id="t95" x="180.56736374" y="57.42849731" fill="black">A</text>
<text id="t96" x="194.42196274" y="50.44067383" fill="black">U</text>
<text id="t97" x="201.49329758" y="36.62850952" fill="black">A</text>
<text id="t98" x="199.0622673" y="21.30303955" fill="black">U</text>
<text id="t99" x="188.06368637" y="10.35723877" fill="black">A</text>
<text id="t100" x="172.72669602" y="8" fill="black">C</text>
<text id="t101" x="158.9487114" y="15.13769531" fill="black">C</text>
</g>
</g>
</svg>
